<?xml version="1.0" standalone="no"?>
<!DOCTYPE svg PUBLIC "-//W3C//DTD SVG 20010904//EN"
 "http://www.w3.org/TR/2001/REC-SVG-20010904/DTD/svg10.dtd">
<svg version="1.0" xmlns="http://www.w3.org/2000/svg"
 width="580.000000pt" height="719.000000pt" viewBox="0 0 580.000000 719.000000"
 preserveAspectRatio="xMidYMid meet">

<g transform="translate(0.000000,719.000000) scale(0.100000,-0.100000)"
fill="#000000" stroke="none">
<path d="M3047 4793 c-26 -45 -68 -86 -130 -132 -32 -24 -71 -64 -88 -91 -16
-26 -45 -60 -63 -74 -19 -14 -37 -38 -40 -53 -15 -63 -49 -133 -73 -149 -15
-9 -22 -11 -18 -3 5 7 4 10 -2 6 -18 -11 -127 23 -169 53 -33 24 -41 26 -41
12 0 -9 5 -21 11 -25 7 -6 6 -7 -4 -4 -9 2 -15 16 -15 37 0 24 -8 38 -31 56
l-31 25 -17 -26 c-9 -14 -14 -30 -11 -34 11 -18 -23 -4 -54 22 -41 34 -66 34
-87 0 -10 -16 -36 -46 -60 -69 -43 -41 -82 -133 -67 -158 4 -7 1 -6 -9 1 -8 7
-19 9 -23 5 -5 -4 -5 -1 -1 6 5 8 -1 23 -15 38 -26 27 -44 31 -53 9 -3 -8 -12
-12 -20 -9 -10 4 -15 -3 -18 -23 -4 -38 -48 -45 -72 -11 -19 27 -28 19 -45
-42 -7 -25 -30 -67 -51 -95 -48 -64 -60 -88 -60 -120 0 -39 -39 -147 -63 -172
-11 -13 -31 -23 -44 -23 -18 0 -23 -5 -23 -25 0 -15 -6 -25 -14 -25 -9 0 -12
-7 -9 -20 3 -12 -2 -29 -11 -39 -15 -16 -15 -22 -5 -39 21 -34 -2 -68 -65 -96
-57 -25 -92 -65 -82 -91 3 -9 2 -14 -3 -11 -10 6 -81 -57 -81 -73 0 -20 38
-11 58 14 12 15 34 27 58 31 33 5 43 2 63 -20 17 -18 20 -26 10 -26 -8 0 -20
9 -27 21 -18 29 -66 17 -107 -27 -26 -27 -40 -34 -70 -34 -21 0 -46 -7 -55
-15 -9 -8 -26 -16 -38 -18 -12 -2 -28 -9 -34 -15 -7 -7 -18 -12 -26 -12 -8 0
-26 -9 -42 -20 -26 -18 -49 -20 -321 -25 -343 -7 -479 -14 -479 -25 0 -9 39
-13 343 -34 109 -7 200 -16 203 -19 3 -3 -1 -15 -8 -27 -11 -18 -11 -23 5 -35
18 -13 18 -13 0 -19 -15 -5 -18 -14 -15 -41 7 -57 28 -65 172 -66 72 0 142 -6
165 -13 l40 -13 -54 -8 c-81 -12 -107 -48 -79 -109 13 -29 59 -46 127 -46 l44
0 -47 -41 c-37 -32 -46 -47 -44 -67 3 -23 11 -28 78 -44 109 -27 110 -28 65
-45 -48 -18 -55 -21 -169 -72 l-88 -41 3 -125 4 -125 -118 -71 -118 -70 87
-92 86 -92 -5 -56 c-4 -31 -37 -141 -77 -249 -39 -106 -68 -195 -66 -197 6 -6
334 162 468 240 l108 62 0 111 0 112 88 16 c186 34 254 40 452 40 323 -1 712
-54 1085 -149 116 -29 242 -58 280 -64 145 -21 402 -33 566 -27 268 11 370 26
594 91 86 24 171 47 190 51 l35 6 0 -75 0 -75 63 20 c34 11 141 41 237 68 156
43 340 106 340 115 0 2 -30 21 -67 41 -130 71 -254 157 -248 173 3 8 64 99
136 203 118 170 159 241 147 253 -3 4 -416 -124 -427 -132 -2 -2 -2 -5 0 -8 3
-2 83 22 179 54 212 70 230 75 230 61 0 -18 -16 -43 -156 -246 -74 -107 -134
-196 -134 -198 0 -6 169 -116 232 -151 38 -20 70 -40 73 -45 7 -11 -172 -73
-380 -129 -99 -27 -188 -52 -197 -56 -16 -6 -18 0 -18 62 l0 69 68 14 c37 7
73 15 80 18 9 3 12 84 12 358 0 195 -3 354 -6 354 -3 0 -87 -20 -187 -45 -227
-56 -562 -114 -644 -112 -77 2 -100 19 -63 47 14 11 31 18 38 15 8 -3 10 0 6
7 -5 8 -2 9 10 5 9 -4 15 -3 12 1 -3 5 12 17 32 27 29 14 74 19 207 25 94 4
197 12 230 18 33 6 77 14 97 17 21 3 50 18 68 35 24 22 42 30 70 30 43 0 54
15 44 65 -5 29 -2 36 30 60 20 15 36 31 36 36 0 15 -44 54 -79 70 l-34 15 44
19 c31 12 85 20 179 25 113 6 149 12 225 38 139 49 299 119 310 136 21 34 -10
40 -307 61 -237 16 -255 22 -348 111 -32 31 -81 64 -116 79 -96 43 -101 46
-113 72 -6 13 -11 40 -11 59 0 27 -11 48 -55 99 -64 76 -85 114 -85 154 0 21
-6 32 -19 36 -45 14 -119 111 -134 176 -5 21 -11 25 -31 22 -40 -8 -124 115
-127 185 -1 19 -4 13 -10 -18 -12 -63 -54 -103 -108 -103 -44 0 -76 21 -87 55
-6 19 -6 19 -18 -2 -6 -13 -23 -32 -38 -43 -23 -18 -31 -18 -76 -8 -52 13 -94
48 -107 89 -4 14 -24 31 -50 43 -25 12 -47 28 -50 37 -3 10 -18 53 -33 97
l-27 80 -54 5 c-54 6 -71 17 -111 78 -15 22 -16 23 -48 7 -54 -27 -61 -20
-107 105 -59 161 -81 207 -104 219 -29 16 -35 14 -54 -16z m-590 -469 c-3 -4
-2 -16 4 -26 8 -15 8 -23 -2 -32 -9 -8 -10 -8 -5 1 4 7 2 21 -3 31 -9 18 -6
32 7 32 3 0 2 -3 -1 -6z m39 -22 c-3 -3 0 -12 6 -21 10 -13 10 -14 -2 -4 -16
15 -23 46 -8 37 5 -3 7 -9 4 -12z m24 -42 c23 15 36 12 15 -3 -10 -8 -15 -19
-11 -25 5 -8 2 -10 -8 -6 -9 3 -16 10 -16 15 0 4 -6 7 -12 5 -7 -1 -10 -1 -5
1 4 3 4 10 0 16 -5 9 -3 9 8 0 9 -8 20 -9 29 -3z m107 4 c-3 -3 -12 -4 -19 -1
-8 3 -5 6 6 6 11 1 17 -2 13 -5z m-43 -20 c9 -24 2 -26 -12 -4 -7 11 -8 20 -3
20 5 0 12 -7 15 -16z m-47 -50 c0 -8 -3 -12 -5 -9 -9 8 -32 -17 -26 -27 4 -6
-3 -5 -15 2 -18 9 -20 14 -10 26 6 8 14 14 16 14 3 0 0 -7 -7 -15 -7 -8 -8
-15 -2 -15 18 0 32 26 20 38 -8 8 -6 10 9 6 11 -3 20 -12 20 -20z m-40 -60
c-3 -3 -12 -4 -19 -1 -8 3 -5 6 6 6 11 1 17 -2 13 -5z m1834 -377 c-10 -9 -11
-8 -5 6 3 10 9 15 12 12 3 -3 0 -11 -7 -18z m-2210 -134 c12 -16 12 -17 -2 -6
-9 7 -20 9 -24 5 -5 -4 -5 -1 -1 6 9 16 11 15 27 -5z m2859 -503 c0 -6 27 -10
61 -10 36 0 58 4 54 10 -3 5 6 3 20 -4 19 -10 54 -13 117 -10 79 3 89 2 78
-11 -11 -13 -121 -15 -888 -13 -686 2 -876 6 -879 15 -4 10 124 12 611 10 406
-1 616 1 616 8 0 6 4 4 9 -3 6 -10 19 -12 47 -7 22 4 63 6 92 6 31 0 50 4 47
9 -3 6 -1 10 4 10 6 0 11 -4 11 -10z m-4032 -21 c22 12 815 13 822 2 3 -5 25
-6 49 -1 54 10 1569 14 1629 4 23 -3 39 -10 36 -15 -3 -5 -352 -9 -798 -9
-437 1 -797 0 -802 -1 -5 -1 -13 -1 -19 0 -5 1 -222 1 -482 1 -437 1 -472 2
-466 17 4 11 8 13 11 5 2 -8 9 -9 20 -3z m4399 -15 c-3 -3 -12 -4 -19 -1 -8 3
-5 6 6 6 11 1 17 -2 13 -5z m-3400 -35 c9 -8 10 -15 3 -24 -14 -17 17 -30 35
-15 9 8 15 8 20 0 4 -6 53 -10 126 -10 73 0 119 -4 119 -10 0 -6 -51 -10 -132
-11 -155 -1 -163 -2 -189 -25 -16 -14 -22 -15 -32 -5 -6 7 -7 12 -2 11 21 -5
36 0 30 10 -3 6 -3 16 2 23 19 30 13 46 -21 53 -46 8 -73 -2 -80 -30 -6 -23
-36 -45 -36 -27 0 5 7 11 15 15 8 3 15 11 14 18 0 10 -2 10 -6 1 -2 -7 -9 -13
-14 -13 -4 0 -6 7 -3 15 6 13 -6 21 -17 11 -2 -2 -192 -6 -421 -9 -352 -5
-418 -4 -418 8 0 18 28 19 559 22 309 2 438 0 448 -8z m3203 -4 c0 -16 -1602
-14 -1608 3 -3 10 159 12 802 10 529 -2 806 -6 806 -13z m-3400 -52 c0 -11
-72 -13 -415 -12 -228 1 -415 5 -415 8 0 4 3 11 7 15 4 4 191 6 415 5 335 -2
408 -5 408 -16z m30 -3 c-6 -11 -13 -20 -15 -20 -2 0 -3 9 -2 20 1 11 7 20 14
20 11 0 11 -5 3 -20z m760 9 c71 0 133 -5 136 -10 6 -10 4 -10 -162 -11 -67 0
-132 3 -145 7 -23 8 -23 8 -4 16 11 4 26 6 32 4 7 -2 71 -5 143 -6z m2500 -8
c0 -5 -8 -12 -17 -15 -14 -4 -1862 -1 -1898 3 -5 1 -4 5 4 10 19 12 1911 14
1911 2z m-3255 -51 c-16 -31 -29 -41 -19 -15 4 8 1 15 -5 15 -6 0 -11 -6 -12
-12 0 -8 -2 -9 -5 -2 -5 11 -13 11 -276 -1 -96 -4 -138 -3 -143 5 -4 6 -5 13
-4 15 2 1 94 6 203 9 139 4 203 2 213 -5 9 -9 13 -8 13 0 0 7 4 10 8 7 4 -2
14 -1 22 5 22 13 22 12 5 -21z m2875 6 c0 -19 -191 -18 -197 2 -4 9 20 12 96
12 80 0 101 -3 101 -14z m-2672 -18 c-2 -9 12 -14 40 -16 23 -2 42 -7 42 -11
0 -4 15 -6 33 -4 28 4 30 3 13 -8 -29 -18 -108 -12 -125 9 -13 16 -13 16 -8 0
4 -12 1 -18 -9 -18 -11 0 -14 5 -10 17 6 16 6 16 -12 0 -10 -9 -23 -17 -28
-17 -5 0 -1 5 9 11 9 6 14 15 11 21 -4 6 -3 8 3 5 6 -4 16 0 23 8 15 18 21 19
18 3z m1382 -18 c392 0 716 -2 718 -5 3 -3 3 -7 0 -10 -3 -3 -332 -8 -731 -11
l-725 -5 2 25 c1 16 5 21 12 15 6 -5 323 -9 724 -9z m-910 -10 c0 -24 -15 -27
-24 -4 -3 8 -2 12 4 9 6 -3 10 -1 10 4 0 6 2 11 5 11 3 0 5 -9 5 -20z m-703
-4 c4 -3 -3 -6 -15 -6 -31 0 -52 -10 -52 -26 0 -10 -12 -14 -42 -13 l-43 2 40
7 c75 12 0 20 -178 17 -92 -1 -167 1 -167 4 0 18 85 25 258 23 107 -1 196 -5
199 -8z m150 -8 c-3 -8 -6 -5 -6 6 -1 11 2 17 5 13 3 -3 4 -12 1 -19z m347 7
c4 -11 -2 -15 -23 -15 -16 0 -37 3 -47 7 -16 6 -16 7 2 14 32 13 62 10 68 -6z
m310 3 c-2 -3 -18 -9 -34 -13 -34 -7 -60 3 -39 15 15 10 79 8 73 -2z m-1206
-38 c71 0 93 -3 89 -12 -3 -9 -26 -12 -78 -11 -41 1 -107 2 -147 3 -43 0 -71
4 -67 10 3 5 12 7 20 4 7 -3 22 -1 32 5 10 6 27 9 38 6 11 -3 62 -5 113 -5z
m3010 -2 c-4 -10 -121 -14 -532 -16 -291 -2 -536 0 -545 5 -25 12 171 19 647
21 343 2 433 -1 430 -10z m318 0 c5 -8 0 -9 -14 -6 -12 4 -22 3 -22 -1 0 -4
-46 -6 -102 -6 -72 0 -102 4 -105 13 -6 17 232 18 243 0z m-2727 -14 c10 -9
-35 -3 -49 6 -11 8 -7 9 15 4 17 -4 32 -8 34 -10z m746 -3 c17 -7 16 -9 -9
-15 -16 -4 -43 -4 -60 0 -29 6 -30 5 -16 -12 13 -16 13 -17 0 -9 -8 6 -18 10
-22 10 -3 0 -10 4 -15 9 -5 5 -3 6 5 2 6 -4 12 -3 12 3 0 17 71 25 105 12z
m1740 -22 c237 -2 296 -6 274 -20 -19 -12 -530 -11 -549 1 -12 8 -12 10 5 11
l20 0 -20 10 c-15 7 -12 8 15 4 19 -2 134 -5 255 -6z m-3226 -53 c1 7 39 12
112 13 62 1 115 4 119 6 11 7 34 -24 25 -33 -4 -4 -10 -1 -13 7 -4 11 -6 11
-14 0 -7 -11 -11 -11 -15 -1 -2 6 -9 12 -14 12 -6 0 -7 -4 -4 -10 3 -5 -1 -10
-10 -10 -9 0 -13 5 -10 10 3 6 1 10 -4 10 -6 0 -11 -4 -11 -9 0 -6 -45 -10
-105 -9 -103 1 -123 7 -87 27 13 7 19 6 24 -7 4 -9 7 -12 7 -6z m1411 3 c0
-10 -2 -11 -52 -13 -21 -1 -38 2 -38 7 0 5 7 7 15 3 8 -3 15 -1 15 5 0 6 7 9
15 5 8 -3 15 -1 15 4 0 5 7 7 15 4 8 -4 15 -10 15 -15z m2070 2 l-25 -8 25 -5
c14 -3 -372 -6 -857 -6 -496 -1 -885 3 -888 8 -3 5 5 10 17 12 52 7 1751 6
1728 -1z m-3244 -55 c15 3 24 0 24 -8 0 -9 -20 -14 -64 -15 -67 -3 -95 11 -54
26 14 5 25 5 29 -1 4 -6 12 -4 20 5 11 12 15 12 17 2 2 -8 13 -12 28 -9z
m1364 4 c91 -1 137 -4 124 -10 -27 -11 -434 -18 -427 -7 2 4 9 5 14 2 5 -4 9
0 9 7 0 11 16 13 68 12 37 -2 132 -3 212 -4z m1862 -8 c11 -11 9 -12 -6 -6
-13 5 -17 4 -12 -4 4 -7 2 -12 -3 -12 -6 0 -11 5 -11 11 0 5 -5 7 -12 3 -6 -4
-181 -7 -387 -6 -726 2 -707 2 -690 15 24 18 1103 17 1121 -1z m-3177 -2 c3
-5 1 -10 -4 -10 -6 0 -11 5 -11 10 0 6 2 10 4 10 3 0 8 -4 11 -10z m3105 -74
c0 -3 -76 -6 -170 -6 -131 0 -169 -3 -167 -12 1 -7 -3 -12 -9 -11 -19 3 -109
4 -864 4 -410 0 -761 0 -780 0 -19 0 -51 -2 -70 -4 -28 -3 -36 0 -36 12 0 15
64 16 683 14 583 -1 683 1 683 13 0 12 54 14 346 14 191 0 349 2 352 4 5 5 32
-19 32 -28z m-3142 12 c-4 -12 -149 -20 -191 -11 -44 11 2 21 94 22 76 1 100
-2 97 -11z m32 2 c0 -5 -4 -10 -10 -10 -5 0 -10 5 -10 10 0 6 5 10 10 10 6 0
10 -4 10 -10z m40 -5 c9 -10 9 -15 1 -15 -6 0 -11 5 -11 11 0 5 -4 7 -10 4 -5
-3 -10 -1 -10 4 0 16 16 13 30 -4z m697 -25 c223 -29 556 -92 778 -149 105
-27 231 -55 280 -63 120 -17 614 -18 750 0 235 31 490 80 703 136 l92 24 0
-343 0 -343 -117 -27 c-65 -15 -167 -41 -228 -57 -208 -58 -248 -67 -379 -84
-171 -22 -545 -22 -737 0 -75 8 -199 32 -275 52 -439 115 -811 168 -1174 168
-320 0 -515 -32 -769 -129 -65 -25 -120 -45 -122 -45 -2 0 -3 147 -3 327 l1
326 46 23 c174 89 481 172 727 197 102 11 285 5 427 -13z m238 0 c-3 -5 -11
-10 -16 -10 -6 0 -7 5 -4 10 3 6 11 10 16 10 6 0 7 -4 4 -10z m-1030 -29 c-6
-5 -23 -12 -40 -15 -28 -6 -28 -5 5 8 43 18 46 18 35 7z m1400 -51 c-3 -5 -12
-10 -18 -10 -7 0 -6 4 3 10 19 12 23 12 15 0z m458 -8 c12 -10 85 -13 331 -12
194 0 316 -3 316 -9 0 -8 -120 -11 -755 -15 -106 -1 -217 7 -206 14 5 3 -2 11
-16 17 -19 9 -24 9 -20 0 3 -7 -3 -13 -13 -13 -10 0 -16 5 -13 10 4 5 -1 7
-11 3 -10 -4 -15 -3 -11 3 9 14 -8 12 -24 -2 -9 -9 -12 -9 -7 -1 3 6 1 13 -5
15 -6 2 85 4 203 3 162 0 219 -3 231 -13z m384 -128 c-3 -3 -12 -4 -19 -1 -8
3 -5 6 6 6 11 1 17 -2 13 -5z m56 -1 c-7 -2 -19 -2 -25 0 -7 3 -2 5 12 5 14 0
19 -2 13 -5z m-2720 -458 c-4 -148 -2 -205 6 -205 6 0 54 18 107 40 82 34 218
80 238 80 3 0 6 -45 6 -100 l0 -99 -42 -29 c-108 -72 -514 -282 -506 -260 3 7
19 51 36 98 16 47 44 124 62 172 40 113 53 186 36 213 -7 11 -45 54 -84 96
l-72 77 103 61 c56 33 105 61 108 61 4 0 4 -92 2 -205z"/>
<path d="M2083 3093 c32 -2 81 -2 110 0 29 2 3 3 -58 3 -60 0 -84 -1 -52 -3z"/>
<path d="M3238 3093 c23 -2 61 -2 85 0 23 2 4 4 -43 4 -47 0 -66 -2 -42 -4z"/>
<path d="M3403 3093 c9 -2 23 -2 30 0 6 3 -1 5 -18 5 -16 0 -22 -2 -12 -5z"/>
<path d="M1930 2979 c0 -5 5 -7 10 -4 6 3 10 8 10 11 0 2 -4 4 -10 4 -5 0 -10
-5 -10 -11z"/>
<path d="M2208 2893 c6 -2 18 -2 25 0 6 3 1 5 -13 5 -14 0 -19 -2 -12 -5z"/>
<path d="M2508 2893 c7 -3 16 -2 19 1 4 3 -2 6 -13 5 -11 0 -14 -3 -6 -6z"/>
<path d="M3788 2853 c7 -3 16 -2 19 1 4 3 -2 6 -13 5 -11 0 -14 -3 -6 -6z"/>
<path d="M3888 2853 c6 -2 18 -2 25 0 6 3 1 5 -13 5 -14 0 -19 -2 -12 -5z"/>
<path d="M4008 2853 c7 -3 16 -2 19 1 4 3 -2 6 -13 5 -11 0 -14 -3 -6 -6z"/>
<path d="M1288 2763 c6 -2 18 -2 25 0 6 3 1 5 -13 5 -14 0 -19 -2 -12 -5z"/>
<path d="M4588 2763 c6 -2 18 -2 25 0 6 3 1 5 -13 5 -14 0 -19 -2 -12 -5z"/>
<path d="M2121 2390 c-13 -11 -35 -20 -50 -20 -56 0 -101 -58 -101 -130 0 -23
5 -50 10 -61 8 -14 7 -19 -3 -19 -8 0 -22 -9 -32 -20 -25 -27 -5 -50 44 -50
21 0 46 -6 56 -14 16 -12 17 -16 6 -30 -26 -31 -88 -15 -104 27 -8 22 -27 13
-27 -12 0 -28 23 -42 75 -43 56 -1 98 26 103 65 3 22 -2 27 -35 36 -21 6 -48
11 -60 11 -39 0 -25 19 18 26 81 13 134 95 110 167 -11 30 -3 46 22 47 4 0 7
9 7 20 0 25 -8 25 -39 0z m-31 -50 c24 -45 -20 -175 -57 -168 -24 4 -32 47
-18 101 11 45 39 87 56 87 5 0 13 -9 19 -20z"/>
<path d="M1381 2383 c-24 -8 -39 -18 -34 -22 14 -8 -47 -303 -67 -326 -13 -16
-13 -18 0 -12 8 3 39 13 68 22 77 24 131 70 170 145 29 56 33 72 29 119 -7 88
-60 111 -166 74z m106 -19 c23 -23 25 -31 20 -84 -6 -69 -43 -144 -90 -181
-36 -29 -77 -45 -77 -31 0 5 14 76 30 157 17 81 30 149 30 151 0 2 20 7 53 13
4 0 20 -11 34 -25z"/>
<path d="M1843 2334 l-35 -38 6 31 7 31 -34 -16 c-19 -10 -30 -20 -24 -24 7
-4 4 -36 -10 -97 l-20 -91 21 0 c18 0 23 9 33 62 16 82 85 180 109 155 4 -4 0
-50 -10 -103 -14 -72 -16 -98 -7 -107 16 -16 41 1 65 44 l18 34 -20 -25 c-11
-14 -23 -22 -26 -20 -2 3 2 34 10 69 8 35 14 78 12 95 -2 26 -8 32 -31 34 -22
3 -36 -5 -64 -34z"/>
<path d="M1645 2346 c-56 -25 -95 -92 -95 -164 0 -50 19 -75 57 -75 42 0 87
35 112 88 29 61 27 109 -4 140 -28 29 -30 29 -70 11z m51 -31 c17 -68 -32
-190 -76 -190 -22 0 -25 5 -28 42 -2 23 2 59 7 81 22 80 83 122 97 67z"/>
<path d="M2232 2348 c-34 -9 -73 -54 -90 -105 -24 -71 26 -141 82 -115 19 9
27 8 36 -4 7 -8 18 -14 25 -14 15 0 61 68 52 76 -3 3 -8 -4 -12 -15 -8 -25
-25 -28 -25 -3 1 9 7 46 15 82 8 36 14 70 15 75 0 17 -64 32 -98 23z m46 -25
c11 -19 -11 -126 -34 -160 -46 -71 -89 28 -47 111 32 64 63 82 81 49z"/>
<path d="M2907 2308 c-8 -20 -25 -39 -37 -43 -15 -5 -19 -10 -11 -14 9 -6 6
-31 -9 -97 -22 -92 -20 -134 5 -134 16 0 55 38 55 54 0 5 -6 2 -13 -9 -8 -10
-17 -14 -20 -9 -8 14 33 185 44 178 5 -3 9 0 9 5 0 6 -4 11 -9 11 -6 0 -5 14
0 36 14 50 5 66 -14 22z"/>
<path d="M2381 2315 c-20 -7 -29 -14 -21 -17 14 -4 12 -27 -17 -160 -4 -23 -2
-28 15 -28 16 0 22 10 31 50 13 61 31 98 61 125 21 19 22 19 35 1 16 -21 35
-13 35 13 0 31 -37 32 -72 3 l-31 -26 5 27 c3 15 2 26 -1 26 -3 -1 -21 -7 -40
-14z"/>
<path d="M2552 2290 c-42 -26 -76 -99 -68 -145 10 -49 52 -79 91 -65 12 5 26
2 36 -6 22 -19 47 -8 65 30 l15 31 -19 -22 c-11 -12 -22 -20 -24 -18 -3 3 3
42 13 88 10 45 19 87 19 92 0 9 -66 35 -87 35 -5 0 -23 -9 -41 -20z m72 -50
c-4 -112 -47 -178 -86 -130 -23 28 -22 54 1 105 39 87 87 101 85 25z"/>
<path d="M3306 2257 c9 -24 -46 -270 -64 -284 -11 -10 -7 -13 24 -19 74 -14
121 -9 162 18 100 67 106 228 10 275 -13 7 -50 15 -81 19 -50 6 -57 5 -51 -9z
m108 -18 c28 -13 56 -64 56 -101 0 -86 -69 -178 -134 -178 -30 0 -36 4 -36 21
0 18 45 226 55 257 5 15 26 15 59 1z"/>
<path d="M4475 2240 c-3 -5 -19 -10 -34 -10 -38 0 -76 -32 -111 -94 -32 -55
-41 -131 -18 -154 18 -18 52 -15 81 8 15 12 28 16 32 11 9 -16 35 -1 50 30 19
37 19 48 -1 23 -14 -18 -15 -17 -10 16 3 19 12 68 20 108 12 64 8 90 -9 62z
m-32 -66 c-7 -97 -53 -191 -88 -178 -36 14 -5 146 48 202 29 31 42 22 40 -24z"/>
<path d="M2989 2215 c-34 -18 -59 -72 -59 -123 0 -114 131 -132 176 -25 45
106 -27 197 -117 148z m89 -80 c-5 -56 -25 -103 -50 -119 -68 -42 -78 131 -11
184 25 19 27 20 46 3 15 -15 18 -28 15 -68z"/>
<path d="M4265 2180 c-4 -6 -18 -9 -34 -5 -64 14 -158 -107 -148 -189 3 -21
10 -43 15 -48 16 -16 61 -12 81 6 13 11 21 14 26 7 12 -20 35 -11 55 22 11 17
20 37 19 42 0 6 -5 0 -11 -12 -13 -27 -32 -31 -24 -5 11 36 36 185 32 189 -2
2 -7 -1 -11 -7z m-39 -74 c-13 -100 -40 -156 -77 -156 -42 0 -33 93 16 171 43
67 70 60 61 -15z"/>
<path d="M3561 2113 c-89 -89 -63 -230 36 -192 19 7 29 7 31 0 8 -23 43 -10
62 22 11 17 20 37 20 42 -1 6 -8 -3 -17 -20 -25 -46 -28 -14 -8 82 10 46 16
85 14 87 -2 2 -25 7 -52 11 -45 7 -49 6 -86 -32z m91 0 c5 -25 -21 -134 -38
-160 -43 -67 -92 34 -53 109 30 60 83 89 91 51z"/>
<path d="M3912 2128 c-19 -19 -22 -20 -22 -5 0 26 -40 21 -72 -10 l-28 -27 0
23 c0 18 -4 22 -17 16 -10 -4 -26 -10 -36 -13 -14 -3 -15 -7 -6 -13 12 -7 10
-33 -18 -161 -4 -23 -2 -28 14 -28 17 0 23 11 33 61 19 88 77 165 99 130 5 -8
14 -10 22 -6 9 6 11 3 6 -11 -5 -14 -2 -12 13 6 25 31 25 19 3 -83 -16 -77
-16 -80 2 -93 26 -19 29 -18 70 18 l37 31 -7 -39 c-13 -72 -36 -109 -72 -112
-24 -2 -33 1 -38 17 -7 25 -20 27 -29 6 -10 -26 24 -48 67 -42 73 10 96 46
126 202 12 61 25 120 28 133 4 17 1 22 -15 22 -17 0 -22 -8 -27 -37 -15 -91
-64 -183 -96 -183 -23 0 -22 12 4 126 9 39 11 67 5 77 -12 22 -19 21 -46 -5z"/>
<path d="M1964 1542 c-13 -8 -46 -170 -38 -184 9 -14 34 11 28 27 -3 8 2 46
11 86 16 74 16 83 -1 71z"/>
<path d="M2333 1538 c-6 -7 -16 -43 -23 -80 -7 -38 -16 -68 -21 -68 -5 0 -6
-7 -3 -15 10 -25 23 -17 33 21 10 36 37 74 53 74 10 0 11 -30 1 -30 -28 -1
-33 -17 -18 -53 8 -20 19 -37 23 -37 21 0 20 15 0 37 l-22 24 27 25 c31 28 34
42 11 51 -8 3 -26 -4 -41 -18 -23 -22 -25 -22 -20 -4 11 40 18 85 14 85 -2 0
-9 -6 -14 -12z"/>
<path d="M2454 1535 c-10 -8 -16 -15 -13 -15 4 0 0 -28 -7 -62 -7 -35 -13 -71
-14 -80 0 -33 15 -18 30 29 15 46 42 74 57 59 4 -4 -2 -16 -15 -26 -17 -14
-21 -25 -16 -44 9 -38 28 -50 45 -29 8 9 9 14 3 10 -7 -4 -19 4 -28 17 -14 23
-14 25 9 40 26 17 32 40 15 51 -6 4 -22 -1 -35 -9 -28 -19 -31 -11 -16 42 11
37 11 37 -15 17z"/>
<path d="M3081 1541 c-8 -5 -15 -18 -16 -28 -1 -10 -8 -48 -15 -85 -15 -73 -9
-92 17 -65 10 9 12 17 6 17 -7 0 -5 28 7 85 10 47 17 85 16 85 0 0 -7 -4 -15
-9z"/>
<path d="M3924 1542 c-6 -4 -16 -41 -24 -82 -7 -41 -15 -81 -18 -89 -3 -8 0
-12 8 -9 14 4 25 35 35 93 3 17 8 45 11 63 7 34 5 36 -12 24z"/>
<path d="M4047 1539 c-9 -6 -15 -13 -13 -17 2 -4 -2 -34 -10 -67 -7 -33 -14
-68 -14 -77 0 -31 17 -19 24 15 8 41 32 77 52 77 21 0 12 -22 -13 -35 -16 -9
-18 -14 -9 -35 21 -49 26 -53 47 -34 10 9 19 22 19 27 0 6 -6 3 -13 -7 -13
-17 -14 -17 -30 7 -16 24 -15 26 8 41 26 17 34 56 12 56 -7 0 -23 -7 -35 -16
-25 -17 -25 -15 -13 39 5 20 8 37 7 37 0 0 -9 -5 -19 -11z"/>
<path d="M1584 1532 c3 -5 -1 -33 -8 -63 -25 -99 -27 -119 -11 -112 8 3 15 12
15 20 0 8 7 45 16 84 16 71 33 86 62 57 28 -28 -4 -148 -40 -148 -6 0 -8 -3
-5 -6 12 -12 59 28 73 62 26 63 -7 114 -74 114 -18 0 -31 -4 -28 -8z"/>
<path d="M2080 1513 c-1 -16 -7 -56 -14 -90 -11 -53 -11 -63 0 -63 8 0 14 9
14 19 0 37 12 51 42 51 31 0 78 38 78 64 0 28 -30 46 -76 46 -41 0 -44 -2 -44
-27z m89 -1 c16 -30 -9 -66 -47 -70 -35 -4 -35 -2 -15 71 6 23 49 22 62 -1z"/>
<path d="M2824 1532 c3 -4 -3 -45 -13 -90 -13 -58 -14 -82 -6 -86 7 -2 18 29
29 86 17 81 20 89 40 86 11 -2 27 -16 34 -31 17 -36 1 -88 -35 -117 -16 -12
-20 -20 -11 -20 28 0 78 70 78 110 0 34 -44 70 -85 70 -20 0 -34 -4 -31 -8z"/>
<path d="M3660 1520 c0 -11 4 -20 8 -20 4 0 18 -31 30 -69 13 -38 29 -72 37
-75 17 -6 21 23 6 40 -4 5 -19 39 -31 77 -23 64 -50 90 -50 47z"/>
<path d="M3770 1520 c0 -11 2 -20 4 -20 2 0 6 9 9 20 3 11 1 20 -4 20 -5 0 -9
-9 -9 -20z"/>
<path d="M2575 1510 c-3 -5 -1 -10 4 -10 6 0 11 5 11 10 0 6 -2 10 -4 10 -3 0
-8 -4 -11 -10z"/>
<path d="M3120 1510 c0 -5 5 -10 10 -10 6 0 10 5 10 10 0 6 -4 10 -10 10 -5 0
-10 -4 -10 -10z"/>
<path d="M4160 1510 c0 -5 5 -10 10 -10 6 0 10 5 10 10 0 6 -4 10 -10 10 -5 0
-10 -4 -10 -10z"/>
<path d="M1731 1473 c-12 -10 -25 -33 -31 -51 -7 -27 -6 -36 11 -53 25 -25 48
-26 26 -1 -20 22 -22 42 -4 42 8 0 8 3 -2 9 -12 8 -12 13 3 35 16 25 36 33 49
19 4 -3 -3 -17 -15 -30 -12 -13 -17 -23 -11 -23 17 0 46 39 40 55 -8 20 -40
19 -66 -2z"/>
<path d="M1843 1475 c-29 -21 -48 -78 -33 -105 12 -22 35 -27 45 -10 5 8 11 8
20 0 9 -7 16 -6 25 5 7 8 8 15 2 15 -6 0 -6 15 0 46 8 37 7 48 -3 55 -20 12
-32 11 -56 -6z m39 -36 c-4 -48 -29 -84 -48 -69 -16 14 -10 51 14 88 20 31 38
22 34 -19z"/>
<path d="M2206 1465 c-14 -13 -27 -34 -27 -47 -3 -55 6 -67 50 -63 38 3 50 12
44 34 -2 10 0 34 5 54 9 32 8 36 -12 41 -31 8 -31 8 -60 -19z m48 -33 c-8 -42
-20 -62 -40 -62 -27 0 -11 82 20 102 19 12 27 -3 20 -40z"/>
<path d="M2570 1477 c-8 -7 -15 -21 -16 -32 -1 -11 -3 -35 -5 -54 -5 -40 14
-52 31 -20 8 14 8 19 1 15 -13 -9 -14 6 -1 59 10 46 10 47 -10 32z"/>
<path d="M2965 1466 c-35 -35 -35 -92 0 -108 23 -10 29 -9 48 12 l22 24 -22
-18 c-19 -15 -25 -16 -38 -6 -18 15 -20 36 -2 43 9 4 9 6 -1 6 -17 1 13 61 32
61 24 0 26 -14 4 -37 -23 -25 -13 -31 16 -10 10 7 17 22 14 33 -5 29 -44 29
-73 0z"/>
<path d="M3206 1481 c-4 -5 -2 -12 4 -16 13 -8 1 -65 -18 -87 -22 -26 -31 -13
-21 29 13 56 11 73 -6 67 -8 -4 -13 -9 -11 -13 3 -4 1 -25 -4 -47 -7 -29 -6
-42 4 -52 30 -30 91 40 84 95 -3 28 -22 41 -32 24z"/>
<path d="M3277 1470 c-34 -27 -45 -75 -21 -101 21 -23 34 -24 60 -3 18 15 18
15 -3 5 -30 -15 -32 -14 -42 11 -7 20 -3 25 31 40 42 19 59 45 37 59 -21 13
-34 11 -62 -11z m53 -5 c0 -16 -47 -51 -57 -42 -9 10 26 57 42 57 8 0 15 -7
15 -15z"/>
<path d="M3415 1480 c-4 -6 -11 -8 -16 -5 -14 9 -34 -8 -35 -30 0 -11 -4 -35
-8 -52 -11 -47 11 -42 24 5 15 55 31 71 63 65 27 -5 29 -15 11 -70 -10 -35 23
-56 45 -29 10 12 9 14 -7 9 -18 -4 -18 -1 -9 51 11 60 6 76 -17 57 -10 -8 -16
-9 -21 -1 -8 13 -22 13 -30 0z"/>
<path d="M3535 1453 c-4 -21 -10 -42 -13 -48 -4 -5 -8 -25 -9 -44 -3 -48 -26
-70 -54 -53 -18 11 -20 11 -17 0 7 -22 52 -21 72 1 17 18 45 120 46 164 0 32
-18 17 -25 -20z"/>
<path d="M3651 1474 c0 -11 3 -14 6 -6 3 7 2 16 -1 19 -3 4 -6 -2 -5 -13z"/>
<path d="M3795 1464 c-27 -29 -35 -98 -12 -106 37 -13 97 9 97 36 0 6 -5 4
-11 -4 -7 -11 -8 -1 -3 34 5 36 3 50 -7 57 -23 15 -39 10 -64 -17z m51 -15
c-3 -17 -6 -37 -6 -45 0 -17 -29 -46 -41 -39 -16 11 -10 62 12 89 28 36 43 33
35 -5z"/>
<path d="M3944 1468 l-19 -23 23 19 c20 18 22 18 22 2 0 -10 -9 -25 -19 -34
-17 -15 -18 -20 -5 -49 16 -37 25 -40 45 -16 8 10 9 14 2 10 -7 -4 -18 2 -27
15 -14 20 -13 23 10 45 14 13 24 29 21 36 -7 21 -32 19 -53 -5z"/>
<path d="M4160 1477 c-8 -7 -15 -21 -16 -32 -1 -11 -3 -35 -5 -54 -5 -40 14
-52 31 -20 8 14 8 19 1 15 -14 -9 -14 8 0 57 12 44 10 50 -11 34z"/>
<path d="M3113 1473 c-7 -3 -13 -20 -13 -38 0 -18 -4 -35 -9 -37 -5 -2 -5 -13
0 -27 8 -20 11 -21 25 -10 9 7 12 15 6 17 -6 2 -6 17 0 44 10 47 8 57 -9 51z"/>
<path d="M3761 1464 c0 -11 3 -14 6 -6 3 7 2 16 -1 19 -3 4 -6 -2 -5 -13z"/>
<path d="M3641 1424 c0 -11 3 -14 6 -6 3 7 2 16 -1 19 -3 4 -6 -2 -5 -13z"/>
<path d="M3752 1420 c0 -14 2 -19 5 -12 2 6 2 18 0 25 -3 6 -5 1 -5 -13z"/>
<path d="M3627 1380 c-3 -11 -1 -20 4 -20 5 0 9 9 9 20 0 11 -2 20 -4 20 -2 0
-6 -9 -9 -20z"/>
<path d="M1769 1373 c-13 -16 -12 -17 4 -4 9 7 17 15 17 17 0 8 -8 3 -21 -13z"/>
<path d="M2666 1368 c-8 -31 -7 -38 3 -38 5 0 14 14 20 30 8 24 7 30 -3 30 -8
0 -16 -10 -20 -22z"/>
</g>
</svg>
